<svg width="24" height="25" viewBox="0 0 24 25" fill="none" xmlns="http://www.w3.org/2000/svg">
<g clip-path="url(#clip0_2_1279)">
<path d="M15 11.5001C14.9998 10.9489 14.8477 10.4084 14.5605 9.93802C14.2734 9.46759 13.8621 9.08538 13.372 8.83332C12.8818 8.58126 12.3317 8.4691 11.782 8.50915C11.2323 8.5492 10.7043 8.73991 10.2558 9.06035C9.80739 9.3808 9.45589 9.81858 9.23992 10.3257C9.02394 10.8327 8.95184 11.3895 9.03151 11.9349C9.11119 12.4803 9.33956 12.9931 9.69158 13.4173C10.0436 13.8414 10.5056 14.1603 11.027 14.3391" stroke="#26303E" stroke-width="2" stroke-linecap="round" stroke-linejoin="round"/>
<path d="M11.76 21.9699C11.316 21.917 10.9029 21.7162 10.587 21.3999L6.34295 17.1569C5.41072 16.2245 4.72339 15.0762 4.34209 13.8141C3.96079 12.5519 3.89735 11.2151 4.15741 9.92254C4.41747 8.62997 4.99297 7.42171 5.83272 6.40524C6.67246 5.38877 7.75042 4.59561 8.9707 4.09631C10.191 3.59702 11.5157 3.40706 12.8272 3.54334C14.1386 3.67962 15.396 4.13792 16.4875 4.87746C17.579 5.61701 18.4709 6.61487 19.0837 7.78229C19.6965 8.9497 20.0112 10.2505 20 11.5689" stroke="#26303E" stroke-width="2" stroke-linecap="round" stroke-linejoin="round"/>
<path d="M18.0001 22.5001L21.3501 19.2161C21.5556 19.0168 21.719 18.7783 21.8307 18.5147C21.9425 18.2512 22.0003 17.9679 22.0007 17.6817C22.0012 17.3954 21.9443 17.112 21.8334 16.8481C21.7225 16.5841 21.5599 16.3451 21.3551 16.1451C20.9373 15.7365 20.3763 15.5071 19.7918 15.506C19.2074 15.5049 18.6455 15.7321 18.2261 16.1391L18.0021 16.3591L17.7791 16.1391C17.3613 15.7307 16.8006 15.5016 16.2163 15.5005C15.6321 15.4994 15.0705 15.7264 14.6511 16.1331C14.4456 16.3324 14.2821 16.5708 14.1703 16.8343C14.0585 17.0978 14.0006 17.3811 14 17.6673C13.9994 17.9536 14.0562 18.2371 14.167 18.501C14.2778 18.765 14.4404 19.004 14.6451 19.2041L18.0001 22.5001Z" stroke="#26303E" stroke-width="2" stroke-linecap="round" stroke-linejoin="round"/>
</g>
<defs>
<clipPath id="clip0_2_1279">
<rect width="24" height="24" fill="white" transform="translate(0 0.5)"/>
</clipPath>
</defs>
</svg>
