<svg width="40" height="40" viewBox="0 0 40 40" fill="none" xmlns="http://www.w3.org/2000/svg">
<path d="M25 13.3333H25.0167M25 35H10C8.67392 35 7.40215 34.4732 6.46447 33.5355C5.52678 32.5979 5 31.3261 5 30V10C5 8.67392 5.52678 7.40215 6.46447 6.46447C7.40215 5.52678 8.67392 5 10 5H30C31.3261 5 32.5979 5.52678 33.5355 6.46447C34.4732 7.40215 35 8.67392 35 10V19.1667" stroke="#172554" stroke-width="3.33333" stroke-linecap="round" stroke-linejoin="round"/>
<path d="M5 26.6666L13.3333 18.3333C14.88 16.845 16.7867 16.845 18.3333 18.3333L23.3333 23.3333M31.6667 36.6666V36.6833M31.6667 31.6666C32.4138 31.6642 33.1386 31.4113 33.725 30.9482C34.3113 30.4852 34.7254 29.8388 34.9009 29.1125C35.0764 28.3863 35.0032 27.6221 34.6931 26.9424C34.3829 26.2626 33.8536 25.7066 33.19 25.3633C32.527 25.0236 31.7685 24.9183 31.038 25.0645C30.3075 25.2106 29.648 25.5997 29.1667 26.1683" stroke="#172554" stroke-width="3.33333" stroke-linecap="round" stroke-linejoin="round"/>
</svg>
