<svg width="24" height="25" viewBox="0 0 24 25" fill="none" xmlns="http://www.w3.org/2000/svg">
<g clip-path="url(#clip0_2_1317)">
<path d="M20.9401 13.545C21.1519 11.7333 20.8082 9.89995 19.9545 8.28798C19.1008 6.676 17.7775 5.36147 16.1599 4.51857C14.5423 3.67566 12.7067 3.34418 10.8964 3.56805C9.08615 3.79191 7.38662 4.56055 6.02306 5.77212C4.65949 6.98369 3.69625 8.58099 3.26098 10.3524C2.82571 12.1237 2.93895 13.9855 3.5857 15.6911C4.23245 17.3967 5.38218 18.8654 6.88253 19.9028C8.38289 20.9402 10.163 21.4972 11.9871 21.5" stroke="#26303E" stroke-width="2" stroke-linecap="round" stroke-linejoin="round"/>
<path d="M3.6001 9.5H20.4001" stroke="#26303E" stroke-width="2" stroke-linecap="round" stroke-linejoin="round"/>
<path d="M3.6001 15.5H13.0001" stroke="#26303E" stroke-width="2" stroke-linecap="round" stroke-linejoin="round"/>
<path d="M11.4999 3.5C9.81525 6.19961 8.92212 9.31787 8.92212 12.5C8.92212 15.6821 9.81525 18.8004 11.4999 21.5" stroke="#26303E" stroke-width="2" stroke-linecap="round" stroke-linejoin="round"/>
<path d="M12.5 3.5C14.4192 6.57385 15.3053 10.1808 15.029 13.794" stroke="#26303E" stroke-width="2" stroke-linecap="round" stroke-linejoin="round"/>
<path d="M16 22.5L21 17.5" stroke="#26303E" stroke-width="2" stroke-linecap="round" stroke-linejoin="round"/>
<path d="M21 22V17.5H16.5" stroke="#26303E" stroke-width="2" stroke-linecap="round" stroke-linejoin="round"/>
</g>
<defs>
<clipPath id="clip0_2_1317">
<rect width="24" height="24" fill="white" transform="translate(0 0.5)"/>
</clipPath>
</defs>
</svg>
